<svg xmlns="http://www.w3.org/2000/svg" viewBox="0 0 192 192">
  <path fill="#B59F3B" d="M121.26 121.26H70.74V70.74h50.52v50.52ZM70.805 60.695v-50.52h50.52v50.52h-50.52Zm102.2 121.26h-41.57v-50.52h50.52v41.57a8.998 8.998 0 0 1-8.95 8.95Zm8.95-162.83v41.57h-50.52v-50.52h41.57a8.998 8.998 0 0 1 8.95 8.95Z"/>
  <path fill="#538D4E" d="M10.045 70.805v50.52h50.52v-50.52h-50.52ZM70.85 131.48h50.52V182H70.85v-50.52Zm-60.63 41.57v-41.57h50.52V182H19.17a8.998 8.998 0 0 1-8.95-8.95ZM173.05 182h-41.57v-50.52H182v41.57a8.998 8.998 0 0 1-8.95 8.95ZM121.37 10.09H70.85v50.52h50.52V10.09Z"/>
</svg>
