<svg xmlns="http://www.w3.org/2000/svg" viewBox="0 0 192 192">
  <path fill="#222" d="M172.94 0H19.06A19.08 19.08 0 0 0 0 19.06v153.88A19.08 19.08 0 0 0 19.06 192h153.88A19.08 19.08 0 0 0 192 172.94V19.06A19.08 19.08 0 0 0 172.94 0Zm8.95 19.06v41.57h-50.52V10.11h41.57a9 9 0 0 1 8.95 8.95ZM70.74 121.26V70.74h50.52v50.52Zm50.52 10.11v50.52H70.74v-50.52Zm-60.63-10.11H10.11V70.74h50.52Zm10.11-60.63V10.11h50.52v50.52Zm60.63 10.11h50.52v50.52h-50.52ZM19.06 10.11h41.57v50.52H10.11V19.06a9 9 0 0 1 8.95-8.95Zm-8.95 162.83v-41.57h50.52v50.52H19.06a9 9 0 0 1-8.95-8.95Zm162.83 8.95h-41.57v-50.52h50.52v41.57a9 9 0 0 1-8.95 8.95Z"/>
  <path fill="#b59f3b" d="M70.74 70.74h50.52v50.52H70.74z"/>
  <path fill="#538d4e" d="M131.37 70.74h50.52v50.52h-50.52zM70.74 131.37h50.52v50.52H70.74zM10.11 172.94v-41.57h50.52v50.52H19.06a9 9 0 0 1-8.95-8.95ZM172.94 181.89h-41.57v-50.52h50.52v41.57a9 9 0 0 1-8.95 8.95Z"/>
</svg>
